<svg version="1.1" id="InteractiveSVG" xmlns="http://www.w3.org/2000/svg" xmlns:xlink="http://www.w3.org/1999/xlink" x="0px" y="0px" viewBox="0 0 1024 478" style="enable-background:new 0 0 1024 478;" xml:space="preserve">
<style type="text/css">
	.st0{fill:#FFFFFF;}
	.st1{font-family:'ArialMT';}
	.st2{font-size:12.2006px;}
	.st3{fill:#f5f5f5;}
	.st4{fill:#E8AD67;}
	.st5{fill:#49caf6;}
	.st6{fill:#173159;}
	.st7{fill:none;}
	.st8{fill:#FBC318;}
	.st9{opacity:0.72;fill:#FFFFFF;enable-background:new    ;}
	.st10{fill:#FEF898;}
	.st11{fill:#4D4D4E;}
	.st12{fill:#C7D0D5;}
	.st13{fill:#AAB3B8;}
	.st14{fill:#DCE9EA;}
	.st15{fill:#B3DA7C;}
	.st16{fill:#A0D05C;}
	.st17{fill:#7ECF0C;}
	.st18{fill:#338A29;}
	.st19{fill:#D9EEB7;}
	.st20{fill:#CBE79C;}
	.st21{fill:#BD9ACA;}
	.st22{fill:#AC81BD;}
	.st23{fill:#9763AC;}
	.st24{fill:#7E3F99;}
	.st25{fill:#EBDFEF;}
	.st26{fill:#DAC6E2;}
	.st27{fill:#F1A34D;}
	.st28{fill:#ED8C23;}
	.st29{fill:#F57C11;}
	.st30{fill:#CF4306;}
	.st31{fill:#FFD7A3;}
	.st32{fill:#FCC77F;}
	.st33{clip-path:url(#SVGID_2_);}
	.st34{fill:#F9B180;}
	.st35{fill:#DBA46B;}
	.st36{opacity:0.68;fill:#DBA46B;}
	.st37{fill:#966334;}
	.st38{opacity:0.16;fill:#FFFFFF;}
	.st39{fill:#E99E6C;}
	.st40{fill:#F8C794;}
	.st41{fill:#C78C54;}
	.st42{fill:#F2E6D6;}
	.st43{fill:#F5C99D;}
	.st44{opacity:0.26;fill:#FFFFFF;}
	.st45{opacity:0.27;}
	.st46{fill:#E8AD77;}
	.st47{fill:#E2E2E1;}
	.st48{fill:#21323D;}
	.st49{fill:#1E3556;}
	.st50{fill:#172C49;}
	.st51{fill:#0C1D32;}
	.st52{fill:#B7B7B7;}
</style>
<title>interactive2</title>
<g id="timeline">
<rect x="-159.1" y="456.1" width="1319.9" height="21.9" class="st3"/>
<path d="M553.1,436.5c-0.1,0-13.8-0.4-21.9-8.8c-4.1-4.3-6.1-10-6-17c0.1-4.9-0.1-9.9-0.3-14.8  c-1.1-23.6-2.1-45.8,32.5-62.1c16-7.7,51.4-6,51.8-6l0.3-5.6c-1.5-0.1-37.2-1.8-54.5,6.5c-16.1,7.6-25.2,16.5-30.2,26.1  c0.1-12.1,0.1-24.8-0.3-30.2c-0.5-8.9,3.2-10.7,3.2-10.8l0.7-0.3l98-111.1l-4.2-3.7L525,308.9c-2,1.1-6.8,5.1-6.1,16  c0.7,11.2-0.1,56.6-0.1,57h0.1c-0.1,4.7,0.2,9.4,0.4,14.1s0.4,9.7,0.3,14.4c-0.2,8.6,2.3,15.6,7.5,21c9.7,10.1,25.2,10.6,25.9,10.6  h608.1v-5.6L553.1,436.5L553.1,436.5z" class="st3"/>

<path class="st3" d="M449,438.3c0.1,0,13.8-0.4,21.9-8.8c4.1-4.3,6.1-10,6-17c-0.1-4.9,0.1-9.9,0.3-14.8  c1.1-23.6,2.1-45.8-32.5-62.1c-16-7.7-51.4-6-51.8-6l-0.3-5.6c1.5-0.1,37.2-1.8,54.5,6.5c16.1,7.6,25.2,16.5,30.2,26.1  c-0.1-12.1-0.1-24.8,0.3-30.2c0.5-8.9-3.2-10.7-3.2-10.8l-0.7-0.3l-97.9-111.1l4.2-3.7l97,110.2c2,1.1,6.8,5.1,6.1,16  c-0.7,11.2,0.1,56.6,0.1,57h-0.1c0.1,4.7-0.1,9.4-0.4,14.1s-0.4,9.7-0.3,14.4c0.2,8.6-2.3,15.6-7.5,21  c-9.7,10.1-25.2,10.6-25.9,10.6h-608.1v-5.6L449,438.3L449,438.3z"/>

<path class="st3" d="M544.3,458.5c0,0-39.8,0-39.5-38h-6.4c0,0,2.6,38.8-41,38H544.3L544.3,458.5z"/>
<polygon class="st3" points="504.8,420.5 498.4,420.5 499.4,155.6 503.3,155.6 "/><path d="M347,162.9l-0.1-0.2L347,162.9z" class="st4"/>
<g id="design">
<g id="design-badge">
  
 <circle xmlns="http://www.w3.org/2000/svg" cx="667.9" cy="176" r="56.6" class="st5"/>



<g id="design-details">
	<path class="st0" d="M671.2,172.8l-2.8,2.8c-0.9-0.5-1.9-0.9-2.9-1.2l0-4c0-1-0.7-1.7-1.7-1.7l-3.8,0c-1,0-1.7,0.7-1.7,1.7l0,4   c-1,0.3-2,0.7-2.9,1.2l-2.8-2.8c-0.6-0.6-1.7-0.7-2.4,0l-2.6,2.6c-0.6,0.6-0.7,1.7,0,2.4l2.8,2.8c-0.5,0.9-0.9,1.9-1.2,2.9l-4,0   c-1,0-1.7,0.7-1.7,1.7l0,3.8c0,1,0.7,1.7,1.7,1.7l4,0c0.3,1,0.7,2,1.2,2.9l-2.8,2.8c-0.6,0.6-0.7,1.7,0,2.4l2.7,2.7   c0.6,0.6,1.7,0.7,2.4,0l2.8-2.8c0.9,0.5,1.9,0.9,2.9,1.2l0,4c0,1,0.7,1.7,1.7,1.7l3.8,0c1,0,1.7-0.7,1.7-1.7l0-4   c1-0.3,2-0.7,2.9-1.2l2.8,2.8c0.6,0.6,1.7,0.7,2.4,0l2.7-2.7c0.6-0.6,0.7-1.7,0-2.4l-2.8-2.8c0.5-0.9,0.9-1.9,1.2-2.9l4,0   c1,0,1.7-0.7,1.7-1.7l0-3.8c0-1-0.7-1.7-1.7-1.7l-4,0c-0.3-1-0.7-2-1.2-2.9l2.8-2.8c0.6-0.6,0.7-1.7,0-2.4l-2.7-2.7   C672.9,172.1,671.8,172.2,671.2,172.8z M667.7,192.8c-3.1,3.1-8.2,3.2-11.3,0.1s-3.2-8.2-0.1-11.3c3.1-3.1,8.2-3.2,11.3-0.1   C670.8,184.6,670.7,189.6,667.7,192.8z"/>
	<path class="st14" d="M671,173.2l-2.7,2.8c-0.9-0.5-1.8-0.8-2.8-1.1l0-3.8c0-0.8-0.8-1.6-1.6-1.6l-3.7,0c-0.8,0-1.6,0.8-1.6,1.6   l0,3.8c-1,0.3-1.9,0.6-2.8,1.1l-2.8-2.7c-0.6-0.6-1.6-0.6-2.3,0L648,176c-0.6,0.6-0.6,1.6,0,2.3l2.8,2.7c-0.5,0.9-0.8,1.8-1.1,2.8   l-3.8,0c-0.8,0-1.6,0.8-1.6,1.6l0,3.7c0,0.8,0.8,1.6,1.6,1.6l3.8,0c0.3,1,0.6,1.9,1.1,2.8l-2.7,2.8c-0.6,0.6-0.6,1.6,0,2.3l2.6,2.6   c0.6,0.6,1.6,0.6,2.3,0l2.7-2.8c0.9,0.5,1.8,0.8,2.8,1.1l0,3.8c0,0.8,0.8,1.6,1.6,1.6l3.7,0c0.8,0,1.6-0.8,1.6-1.6l0-3.8   c1-0.3,1.9-0.6,2.8-1.1l2.8,2.7c0.6,0.6,1.6,0.6,2.3,0l2.6-2.6c0.6-0.6,0.6-1.6,0-2.3l-2.7-2.7c0.5-0.9,0.8-1.8,1.1-2.8l3.8,0   c0.8,0,1.6-0.8,1.6-1.6l0-3.7c0-0.8-0.8-1.6-1.6-1.6l-3.8,0c-0.3-1-0.6-1.9-1.1-2.8l2.7-2.8c0.6-0.6,0.6-1.6,0-2.3l-2.6-2.6   C672.6,172.5,671.6,172.5,671,173.2z M667.6,192.7c-3,3.1-8,3.1-11,0.1s-3.1-8-0.1-11s8-3.1,11-0.1   C670.6,184.7,670.6,189.6,667.6,192.7z"/>
	<path class="st0" d="M656.5,181.7c-3,3.1-3,8,0.1,11c3.1,3,8,3,11-0.1s3-8-0.1-11S659.5,178.7,656.5,181.7z M666.1,191.2   c-2.2,2.2-5.8,2.3-8.1,0.1c-2.2-2.2-2.3-5.8-0.1-8.1c2.2-2.2,5.8-2.3,8.1-0.1C668.2,185.3,668.3,189,666.1,191.2z"/>
	<path class="st0" d="M692.2,190.8l-1.3,1.3c-0.4-0.3-0.9-0.4-1.3-0.6l0-1.8c0-0.4-0.4-0.8-0.8-0.8l-1.7,0c-0.4,0-0.8,0.4-0.8,0.8   l0,1.8c-0.4,0.1-0.8,0.3-1.3,0.6l-1.3-1.3c-0.3-0.3-0.8-0.3-1.1,0l-1.2,1.2c-0.3,0.3-0.3,0.8,0,1.1l1.3,1.3   c-0.3,0.4-0.4,0.9-0.6,1.3l-1.8,0c-0.4,0-0.8,0.4-0.8,0.8l0,1.7c0,0.4,0.4,0.8,0.8,0.8l1.8,0c0.1,0.4,0.3,0.8,0.6,1.3l-1.3,1.3   c-0.3,0.3-0.3,0.8,0,1.1l1.2,1.2c0.3,0.3,0.8,0.3,1.1,0l1.3-1.3c0.4,0.3,0.9,0.4,1.3,0.6l0,1.8c0,0.4,0.4,0.8,0.8,0.8l1.7,0   c0.4,0,0.8-0.4,0.8-0.8l0-1.8c0.4-0.1,0.8-0.3,1.3-0.6l1.3,1.3c0.3,0.3,0.8,0.3,1.1,0l1.2-1.2c0.3-0.3,0.3-0.8,0-1.1l-1.3-1.3   c0.3-0.4,0.4-0.9,0.6-1.3l1.8,0c0.4,0,0.8-0.4,0.8-0.8l0-1.7c0-0.4-0.4-0.8-0.8-0.8l-1.8,0c-0.1-0.4-0.3-0.8-0.6-1.3l1.3-1.3   c0.3-0.3,0.3-0.8,0-1.1l-1.2-1.2C693,190.5,692.5,190.6,692.2,190.8z M690.6,199.8c-1.4,1.4-3.7,1.4-5.1,0c-1.4-1.4-1.4-3.7,0-5.1   c1.4-1.4,3.7-1.4,5.1,0C692,196.2,692,198.4,690.6,199.8z"/>
	<path class="st14" d="M692,191l-1.2,1.2c-0.4-0.2-0.9-0.4-1.3-0.6l0-1.7c0-0.4-0.4-0.8-0.7-0.7l-1.7,0c-0.4,0-0.8,0.4-0.7,0.7   l0,1.7c-0.4,0.1-0.8,0.3-1.3,0.6L684,191c-0.3-0.3-0.7-0.3-1,0l-1.2,1.2c-0.3,0.3-0.3,0.7,0,1l1.2,1.2c-0.2,0.4-0.4,0.9-0.6,1.3   l-1.7,0c-0.4,0-0.8,0.4-0.7,0.7l0,1.7c0,0.4,0.4,0.8,0.7,0.7l1.7,0c0.1,0.4,0.3,0.8,0.6,1.3l-1.2,1.2c-0.3,0.3-0.3,0.7,0,1l1.2,1.2   c0.3,0.3,0.7,0.3,1,0l1.2-1.2c0.4,0.2,0.9,0.4,1.3,0.6l0,1.7c0,0.4,0.4,0.8,0.7,0.7l1.7,0c0.4,0,0.8-0.4,0.7-0.7l0-1.7   c0.4-0.1,0.8-0.3,1.3-0.6l1.2,1.2c0.3,0.3,0.7,0.3,1,0l1.2-1.2c0.3-0.3,0.3-0.7,0-1l-1.2-1.2c0.2-0.4,0.4-0.9,0.6-1.3l1.7,0   c0.4,0,0.8-0.4,0.7-0.7l0-1.7c0-0.4-0.4-0.8-0.7-0.7l-1.7,0c-0.1-0.4-0.3-0.8-0.6-1.3l1.2-1.2c0.3-0.3,0.3-0.7,0-1L693,191   C692.9,190.7,692.3,190.7,692,191z M690.5,199.8c-1.3,1.4-3.6,1.4-4.9,0c-1.4-1.3-1.4-3.6,0-4.9s3.6-1.4,4.9,0   C691.9,196.2,691.9,198.4,690.5,199.8z"/>
	<path class="st0" d="M685.6,194.9c-1.3,1.4-1.3,3.6,0,4.9c1.4,1.3,3.6,1.3,4.9,0s1.3-3.6,0-4.9   C689.2,193.5,686.9,193.5,685.6,194.9z M689.9,199.1c-1,1-2.6,1.1-3.7,0c-1-1-1.1-2.6,0-3.7c1.1-1.1,2.6-1.1,3.7,0   C690.9,196.4,690.9,198.1,689.9,199.1z"/>
</g><g id="design-title">
	<g>
		<path class="st0" d="M651.2,133.1h1.5v7.3h4.4v1.3h-5.9V133.1z"/>
		<path class="st0" d="M663.1,140.3c0,0.3,0.1,0.5,0.3,0.5c0.1,0,0.2,0,0.3,0v0.9c-0.2,0.1-0.6,0.2-0.9,0.2c-0.6,0-0.9-0.2-1.1-0.8    c-0.5,0.5-1.4,0.8-2.1,0.8c-1.1,0-2.1-0.6-2.1-1.8c0-1.5,1.2-1.8,2.4-1.9c1-0.2,1.9-0.1,1.9-0.9c0-0.7-0.7-0.8-1.3-0.8    c-0.8,0-1.3,0.3-1.4,1h-1.4c0.1-1.6,1.5-2.1,2.8-2.1c1.2,0,2.5,0.5,2.5,1.8V140.3z M661.7,138.5c-0.4,0.3-1.1,0.3-1.7,0.4    c-0.6,0.1-1.1,0.3-1.1,1c0,0.6,0.8,0.8,1.3,0.8c0.6,0,1.5-0.3,1.5-1.2V138.5z"/>
		<path class="st0" d="M664,135.4h1v-1.9h1.4v1.9h1.2v1h-1.2v3.3c0,0.6,0,0.9,0.7,0.9c0.2,0,0.4,0,0.6,0v1.1c-0.3,0-0.6,0.1-0.9,0.1    c-1.4,0-1.7-0.6-1.7-1.6v-3.7h-1V135.4z"/>
		<path class="st0" d="M669.7,138.9c0,1,0.5,1.8,1.7,1.8c0.8,0,1.3-0.3,1.5-1h1.3c-0.3,1.4-1.5,2.1-2.8,2.1c-1.9,0-3-1.4-3-3.3    c0-1.8,1.2-3.3,3-3.3c2,0,3.2,1.8,2.9,3.6H669.7z M672.8,138c0-0.9-0.6-1.6-1.6-1.6c-0.9,0-1.6,0.7-1.6,1.6H672.8z"/>
		<path class="st0" d="M676.3,139.7c0.1,0.8,0.7,1.1,1.4,1.1c0.5,0,1.4-0.1,1.4-0.8c0-0.7-1-0.8-2-1c-1-0.2-2-0.6-2-1.8    c0-1.4,1.5-1.8,2.6-1.8c1.3,0,2.4,0.5,2.6,1.9h-1.4c-0.1-0.6-0.7-0.8-1.3-0.8c-0.4,0-1.1,0.1-1.1,0.6c0,0.7,1,0.8,2,1    c1,0.2,2,0.6,2,1.8c0,1.5-1.5,2-2.8,2c-1.6,0-2.7-0.7-2.7-2.2H676.3z"/>
		<path class="st0" d="M680.9,135.4h1v-1.9h1.4v1.9h1.2v1h-1.2v3.3c0,0.6,0,0.9,0.7,0.9c0.2,0,0.4,0,0.6,0v1.1    c-0.3,0-0.6,0.1-0.9,0.1c-1.4,0-1.7-0.6-1.7-1.6v-3.7h-1V135.4z"/>
	</g>
	<g>
		<path class="st0" d="M631.6,147.4h6.9v1.3h-2.7v7.3h-1.5v-7.3h-2.7V147.4z"/>
		<path class="st0" d="M639.1,153.2c0,1,0.5,1.8,1.7,1.8c0.8,0,1.3-0.3,1.5-1h1.3c-0.3,1.4-1.5,2.1-2.8,2.1c-1.9,0-3-1.4-3-3.3    c0-1.8,1.2-3.3,3-3.3c2,0,3.2,1.8,2.9,3.6H639.1z M642.3,152.3c0-0.9-0.6-1.6-1.6-1.6c-0.9,0-1.6,0.7-1.6,1.6H642.3z"/>
		<path class="st0" d="M648.9,151.8c-0.1-0.8-0.7-1.2-1.4-1.2c-0.7,0-1.7,0.4-1.7,2.3c0,1,0.5,2.1,1.6,2.1c0.8,0,1.3-0.5,1.5-1.4    h1.4c-0.3,1.6-1.2,2.5-2.8,2.5c-1.9,0-3-1.4-3-3.2c0-1.9,1-3.3,3.1-3.3c1.4,0,2.7,0.7,2.8,2.2H648.9z"/>
		<path class="st0" d="M651.4,147.4h1.4v3.2h0c0.3-0.6,1-1,1.9-1c1.3,0,2.2,0.7,2.2,2.1v4.3h-1.4v-3.9c0-1-0.4-1.4-1.2-1.4    c-0.9,0-1.5,0.7-1.5,1.6v3.7h-1.4V147.4z"/>
		<path class="st0" d="M658.2,149.8h1.3v0.9l0,0c0.4-0.7,1.1-1.1,1.9-1.1c1.3,0,2.2,0.7,2.2,2.1v4.3h-1.4v-3.9c0-1-0.4-1.4-1.2-1.4    c-0.9,0-1.5,0.7-1.5,1.6v3.7h-1.4V149.8z"/>
		<path class="st0" d="M664.8,152.8c0-1.9,1.1-3.3,3.1-3.3c2,0,3.1,1.4,3.1,3.3c0,1.9-1.1,3.3-3.1,3.3    C666,156.1,664.8,154.8,664.8,152.8z M669.7,152.8c0-1.1-0.5-2.2-1.8-2.2c-1.2,0-1.8,1.1-1.8,2.2c0,1.1,0.5,2.2,1.8,2.2    C669.2,155,669.7,153.9,669.7,152.8z"/>
		<path class="st0" d="M672.3,147.4h1.4v8.6h-1.4V147.4z"/>
		<path class="st0" d="M674.9,152.8c0-1.9,1.1-3.3,3.1-3.3c2,0,3.1,1.4,3.1,3.3c0,1.9-1.1,3.3-3.1,3.3    C676,156.1,674.9,154.8,674.9,152.8z M679.7,152.8c0-1.1-0.5-2.2-1.8-2.2c-1.2,0-1.8,1.1-1.8,2.2c0,1.1,0.5,2.2,1.8,2.2    C679.2,155,679.7,153.9,679.7,152.8z"/>
		<path class="st0" d="M688,155.6c0,1.9-1.1,2.8-3,2.8c-1.2,0-2.7-0.5-2.8-1.9h1.4c0.2,0.8,0.8,0.9,1.5,0.9c1.1,0,1.6-0.6,1.6-1.6    v-0.9h0c-0.4,0.7-1.1,1.1-1.9,1.1c-2,0-2.8-1.5-2.8-3.3c0-1.7,1-3.1,2.8-3.1c0.8,0,1.5,0.3,1.8,1h0v-0.9h1.4V155.6z M686.6,152.7    c0-1.1-0.5-2.1-1.7-2.1c-1.2,0-1.6,1.1-1.6,2.2c0,1,0.5,2.1,1.6,2.1C686.2,154.9,686.6,153.8,686.6,152.7z"/>
		<path class="st0" d="M689.4,147.4h1.4v1.3h-1.4V147.4z M689.4,149.8h1.4v6.2h-1.4V149.8z"/>
		<path class="st0" d="M693.3,153.2c0,1,0.5,1.8,1.7,1.8c0.8,0,1.3-0.3,1.5-1h1.3c-0.3,1.4-1.5,2.1-2.8,2.1c-1.9,0-3-1.4-3-3.3    c0-1.8,1.2-3.3,3-3.3c2,0,3.2,1.8,2.9,3.6H693.3z M696.5,152.3c0-0.9-0.6-1.6-1.6-1.6c-0.9,0-1.6,0.7-1.6,1.6H696.5z"/>
		<path class="st0" d="M700,154c0.1,0.8,0.7,1.1,1.4,1.1c0.5,0,1.4-0.1,1.4-0.8c0-0.7-1-0.8-2-1c-1-0.2-2-0.6-2-1.8    c0-1.4,1.5-1.8,2.6-1.8c1.3,0,2.4,0.5,2.6,1.9h-1.4c-0.1-0.6-0.7-0.8-1.3-0.8c-0.4,0-1.1,0.1-1.1,0.6c0,0.7,1,0.8,2,1    c1,0.2,2,0.6,2,1.8c0,1.5-1.5,2-2.8,2c-1.6,0-2.7-0.7-2.7-2.2H700z"/>
	</g>
</g></g>
</g>
<g id="complain">
<g id="complain-badge">
  <circle xmlns="http://www.w3.org/2000/svg" cx="499.3" cy="103.3" r="56.6" class="st5"/>
<g id="complain-title">
	<path class="st0" d="M481.3,66.7h9.3v1.7h-3.6v9.7h-2v-9.7h-3.6V66.7z"/>
	<path class="st0" d="M490.1,69.9h1.7v1.6h0c0.2-0.9,1.3-1.8,2.4-1.8c0.4,0,0.5,0,0.7,0v1.8c-0.3,0-0.5-0.1-0.8-0.1   c-1.2,0-2.2,1-2.2,2.8v3.9h-1.8V69.9z"/>
	<path class="st0" d="M503,78.1h-1.8V77h0c-0.4,0.8-1.4,1.4-2.4,1.4c-2.2,0-3.1-1.1-3.1-3.3v-5.3h1.8v5.1c0,1.5,0.6,2,1.6,2   c1.5,0,2-1,2-2.3v-4.8h1.8V78.1z"/>
	<path class="st0" d="M506.3,75.5c0.1,1.1,0.9,1.4,1.9,1.4c0.7,0,1.9-0.1,1.8-1.1c0-1-1.4-1.1-2.7-1.4c-1.3-0.3-2.7-0.8-2.7-2.5   c0-1.8,2-2.4,3.5-2.4c1.7,0,3.2,0.7,3.5,2.5h-1.9c-0.2-0.9-0.9-1.1-1.7-1.1c-0.5,0-1.5,0.1-1.5,0.8c0,0.9,1.3,1,2.7,1.3   c1.3,0.3,2.7,0.8,2.7,2.4c0,2-2,2.7-3.7,2.7c-2.1,0-3.6-0.9-3.7-2.9H506.3z"/>
	<path class="st0" d="M512.5,69.9h1.4v-2.5h1.8v2.5h1.7v1.4h-1.7v4.4c0,0.8,0.1,1.1,0.9,1.1c0.3,0,0.5,0,0.8-0.1v1.4   c-0.4,0-0.8,0.1-1.2,0.1c-1.9,0-2.3-0.7-2.3-2.1v-4.9h-1.4V69.9z"/>
</g><g id="complain-details">
	<defs>
		<circle id="SVGID_1_" cx="499.3" cy="103.9" r="56.4"/>
	</defs>
	<clipPath id="SVGID_2_">
		<use xlink:href="#SVGID_1_" style="overflow:visible;"/>
	</clipPath>
	<g class="st33">
		<g>
			
			<g>
				<path class="st34" d="M524.7,123.3l-26.9-29.9l-18.1-1l-8.4,20.7l30.3,23.3c0,0,1,1.1,3.4-0.2c0.4-0.2,0.7-0.4,0.9-0.6      c0.8-0.8,0.6-1.5,0.6-1.5l0,0c0,0,2.3,1.8,4.9,0.6c1-0.4,1.6-0.9,2-1.3c0.4-0.5,0.5-1,0.6-1.3c0-0.2,0-0.3,0-0.3s2.4,1,4.2-0.5      c0.9-0.6,1.4-1.3,1.6-1.9c0.4-0.9,0.2-1.6,0.2-1.6l0,0c0,0,2,1,3.5-0.3C525.6,126,524.7,123.3,524.7,123.3z"/>
				<g>
					<path class="st35" d="M513.9,131.7l0,0.3C513.9,131.8,513.9,131.7,513.9,131.7z"/>
					<path class="st36" d="M513.9,131.7l0,0.3C513.9,131.8,513.9,131.7,513.9,131.7z"/>
				</g>
				<polygon class="st37" points="522.5,120.9 524.7,123.3 523.4,120.2     "/>
			</g><polygon class="st38" points="496.4,93.4 479.6,92.5 496.4,93.4    "/>
			<path class="st39" d="M514.2,109.1c-2.3-3.8-5.3-7.1-8.9-9.9c-0.5-0.4-1.1-0.8-1.7-1.1c-1.4-0.7-3-0.8-4.5-0.9     c-0.9,0-1.8,0-2.7,0.2c-1,0.3-1.8,0.8-2.6,1.4c-0.8,0.6-1.5,1.3-2.2,2c-1.2,1.3-2.3,2.9-3.2,4.4c-0.3,0.6-0.7,1.2-0.6,1.8     c0.1,0.5,0.4,0.9,0.8,1.2c1.4,1.1,3.3,1.5,5.1,1c1.3-0.3,2.5-1.1,3.4-2.1c1.2-1.2,1.3-3.4,3.2-3.1c1,0.2,0.8,1.3,2.1,2.9     c1.2,1.5,2.6,2.9,4.5,3.8c1.5,0.6,3.3,0.7,4.9,0.8c0.6,0,1.2,0,1.7-0.2c0.5-0.2,1-0.7,1.1-1.2     C514.6,109.9,514.4,109.4,514.2,109.1z"/>
			<g>
				<path class="st40" d="M523.7,105.2c-2.1-5-5-9.5-5-9.5l-12.9-4.1c-1.8-0.6-3.8-0.5-5.5,0.2l-8,3.4c-0.4,0.2-0.7,0.5-0.8,0.8      l-3.4,8.6l-0.1,0.4c-0.2,0.6-0.1,1.3,0.4,1.7c0.9,0.8,2.4,1.9,4.3,1.2c3.3-1.3,4.7-4.9,5-6c0.1-0.2,0.3-0.3,0.5-0.3l4.2,0.4      c0,0,0.5,3.9,3.3,6.6c2.7,2.5,7.7,3.7,7.7,3.7l9.3,8.6l5.3-3.6C527.7,117.2,526.1,110.9,523.7,105.2z"/>
				<g>
					<polygon class="st41" points="522.8,120.6 522.4,120.8 522.5,120.9      "/>
				</g>
				<path class="st39" d="M514.8,112.1c-3-0.2-7.1-1.9-7.1-1.9s3.3,2.1,7,2.4c3.3,0.2,5.7-1.1,5.7-1.1S518.2,112.3,514.8,112.1z"/>
				<path class="st42" d="M490.7,104l0.9-1.8c0.2-0.4,0-0.9-0.5-1l-1.6-0.5l-1.7,4.2l0.7,0.2C489.3,105.5,490.4,104.8,490.7,104z"/>
			</g>
			<g>
				<path class="st39" d="M498.6,133.2c-5.3-4.4-10.2-9.2-15.8-13.2c-0.2,0.5-0.5,0.9-0.8,1.4l19.5,15c0,0,0.9,1.1,3.3-0.1      C502.5,136.2,500.4,134.7,498.6,133.2z"/>
			</g>
			<g>
				<polygon class="st43" points="479.2,93.7 479.2,93.7 479.6,92.5     "/>
				<polygon class="st39" points="523.4,120.2 522.5,120.9 524.7,123.3     "/>
				<polygon class="st37" points="524.7,123.3 522.5,120.9 522.5,120.9     "/>
			</g>
			<g>
				<g>
					<path class="st40" d="M490.4,131.5l-1.2-0.9c-1-0.8-1.1-2.2-0.3-3.1l3.3-3.9c0.8-0.9,2.2-1.1,3.2-0.3l1.2,0.9       c1,0.8,1.1,2.2,0.3,3.1l-3.3,3.9C492.8,132.1,491.4,132.2,490.4,131.5z"/>
					<path class="st40" d="M485.6,127.8l-1.2-0.9c-1-0.8-1.1-2.2-0.3-3.1l3.3-3.9c0.8-0.9,2.3-1.2,3.3-0.4l1.2,0.9       c1,0.8,1,2.3,0.2,3.2l-3.3,3.9C488.1,128.4,486.6,128.5,485.6,127.8z"/>
					<path class="st40" d="M481.1,123.8l-1.2-1c-1-0.8-1.1-2.2-0.3-3.1l2.7-3.2c0.8-0.9,2.3-1.4,3.3-0.7l1.2,1c1,0.8,1,2.5,0.2,3.4       l-2.7,3.2C483.6,124.5,482.1,124.6,481.1,123.8z"/>
					<path class="st40" d="M494.7,134.8l-0.8-0.6c-1-0.8-1.1-2.2-0.3-3.1l2.1-2.5c0.8-0.9,2.2-1.1,3.2-0.3l0.8,0.6       c1,0.8,1.1,2.2,0.3,3.1l-2.1,2.5C497.1,135.4,495.7,135.6,494.7,134.8z"/>
				</g>
				<g>
					<path class="st44" d="M486.3,118.7c0.2,0.1,0.4,0.1,0.5,0c0.9-0.6-0.7-1.8-1.2-2.1c-0.4-0.3-1.5-1.2-1.9-0.4       c-0.2,0.3,0.1,0.7,0.3,1c0.4,0.4,0.8,0.7,1.3,1C485.6,118.3,486,118.6,486.3,118.7z"/>
				</g>
				<g>
					<path class="st44" d="M491.3,122.1c0.2,0.1,0.4,0.1,0.5,0c0.9-0.6-0.7-1.8-1.2-2.1c-0.4-0.3-1.5-1.2-1.9-0.4       c-0.2,0.3,0.1,0.7,0.3,1c0.4,0.4,0.8,0.7,1.3,1C490.6,121.7,491,122,491.3,122.1z"/>
				</g>
				<g>
					<path class="st44" d="M495.8,126c0.2,0.1,0.4,0.1,0.5,0c0.9-0.5-0.7-1.7-1.1-2c-0.4-0.3-1.4-1.2-1.8-0.3       c-0.1,0.3,0.1,0.7,0.3,0.9c0.4,0.3,0.8,0.7,1.2,0.9C495.1,125.6,495.5,125.9,495.8,126z"/>
				</g>
				<g>
					<path class="st44" d="M499.1,130.6c0.2,0.1,0.3,0.1,0.4,0c0.8-0.5-0.6-1.5-0.9-1.7c-0.4-0.2-1.2-1-1.5-0.3       c-0.1,0.3,0.1,0.6,0.3,0.8c0.3,0.3,0.7,0.6,1,0.8C498.6,130.2,498.9,130.5,499.1,130.6z"/>
				</g>
			</g>
			<g class="st45">
				<path class="st39" d="M511.3,134.7c1-0.4,1.6-0.9,2-1.3c0.4-0.5,0.5-1,0.6-1.3c0-0.2,0-0.3,0-0.3s2.4,1,4.2-0.5      c0.9-0.6,1.4-1.3,1.6-1.9c0.4-0.9,0.2-1.6,0.2-1.6l0,0c0,0,2,1,3.5-0.3c2.2-1.5,1.2-4.1,1.2-4.1c0,3.8-3.5,4.3-4.6,3.4      l-12.7-10.6l11.8,10.9c-0.2,3.5-4.1,4.6-5.2,3.8l-11.4-10.2l10.3,10.5c-0.4,3.4-4.7,3.5-6.3,2l-7.5-7.1l7.3,8.1l0,0.1      C507,134.5,509,135.7,511.3,134.7z"/>
			</g>
			<path class="st42" d="M486.2,119.7c0.2-0.2,0.3-0.5,0.1-0.7c-0.1-0.1-0.2-0.1-0.3-0.1c-0.9-0.2-1.7-1-2.3-1.7     c-0.1-0.1-0.2-0.2-0.3-0.2c-0.2-0.1-0.3,0-0.5,0.1c-0.1,0.1-0.2,0.3-0.2,0.4c-0.2,0.6-0.3,1.3,0,1.8c0.1,0.2,0.4,0.4,0.6,0.5     c0.4,0.3,1,0.5,1.5,0.4C485.3,120.3,485.8,120.1,486.2,119.7z"/>
			<path class="st42" d="M491.1,123.1c0.2-0.2,0.3-0.5,0.1-0.7c-0.1-0.1-0.2-0.1-0.3-0.1c-0.9-0.2-1.7-1-2.3-1.7     c-0.1-0.1-0.2-0.2-0.3-0.2c-0.2-0.1-0.3,0-0.5,0.1c-0.1,0.1-0.2,0.3-0.2,0.4c-0.2,0.6-0.3,1.3,0,1.8c0.1,0.2,0.4,0.4,0.6,0.5     c0.4,0.3,1,0.5,1.5,0.4C490.2,123.7,490.8,123.5,491.1,123.1z"/>
			<path class="st42" d="M495.6,126.9c0.2-0.2,0.3-0.5,0.1-0.7c-0.1-0.1-0.2-0.1-0.3-0.1c-0.9-0.2-1.6-0.9-2.2-1.6     c-0.1-0.1-0.1-0.2-0.2-0.2c-0.1-0.1-0.3,0-0.4,0.1c-0.1,0.1-0.2,0.3-0.2,0.4c-0.2,0.6-0.3,1.2,0,1.7c0.1,0.2,0.3,0.4,0.6,0.5     c0.4,0.3,0.9,0.4,1.4,0.4C494.8,127.5,495.3,127.3,495.6,126.9z"/>
			<path class="st42" d="M499,131.4c0.1-0.2,0.2-0.4,0.1-0.6c-0.1-0.1-0.2-0.1-0.3-0.1c-0.8-0.2-1.4-0.8-1.9-1.4     c-0.1-0.1-0.1-0.1-0.2-0.2c-0.1,0-0.3,0-0.4,0.1c-0.1,0.1-0.2,0.2-0.2,0.3c-0.2,0.5-0.3,1,0,1.5c0.1,0.2,0.3,0.3,0.5,0.4     c0.4,0.2,0.8,0.4,1.2,0.4C498.3,131.9,498.7,131.7,499,131.4z"/>
			<g>
				<path class="st46" d="M492.6,123.1c-0.2,0.1-0.4,0.3-0.5,0.4l0,0L492.6,123.1z"/>
				<path class="st46" d="M495.7,128.6l-2.1,2.5c-0.4,0.5-0.6,1.2-0.5,1.8l3.2-4.8C496.1,128.3,495.9,128.4,495.7,128.6z"/>
				<polygon class="st46" points="493.6,131.1 495.7,128.6 495.7,128.6     "/>
				<polygon class="st46" points="492.6,123.1 492.6,123.1 492.6,123.1     "/>
				<path class="st46" d="M492.6,123.1l-0.5,0.5l-3.2,3.8c-0.6,0.7-0.6,1.5-0.3,2.3L492.6,123.1L492.6,123.1z"/>
				<path class="st46" d="M487.4,119.9l-3.3,3.9c-0.6,0.7-0.6,1.6-0.3,2.3l4.1-6.6C487.7,119.6,487.5,119.7,487.4,119.9z"/>
			</g>
		</g>
		<g>
			<path class="st0" d="M536.3,111.7c-1-2.4-2-4.9-2.7-7.4c-0.7-2.3-1.2-4.7-1.8-7c-0.4-2-0.8-3.9-1.3-5.9c-0.4-0.9-0.9-1.7-1.4-2.6     l-11.9,4.4c-0.5,0.2-0.8,0.8-0.6,1.3l9.2,24.6c0.2,0.5,0.8,0.8,1.3,0.6l10.9-4C537.4,114.3,536.9,113,536.3,111.7z"/>
			<path class="st47" d="M540.2,110.2c-1-2.4-2-4.9-2.7-7.4c-0.7-2.3-1.2-4.7-1.8-7c-0.4-2-0.8-3.9-1.3-5.9     c-0.4-0.9-0.9-1.7-1.4-2.6l-11.9,4.4c-0.5,0.2-0.8,0.8-0.6,1.3l9.2,24.6c0.2,0.5,0.8,0.8,1.3,0.6l10.9-4     C541.3,112.9,540.7,111.6,540.2,110.2z"/>
			<path class="st48" d="M582.8,67.7c-18.5,7.5-39.6,15.1-59,21.4c-0.7,0.2-1,0.9-0.8,1.6c2,6.6,6.8,19.9,9.9,27.4     c0.2,0.6,0.9,0.9,1.5,0.7c16.3-4.7,32.7-9.7,48.4-15.3V67.7z"/>
			<path class="st49" d="M582.8,67.7c-18.5,7.5-39.6,15.1-59,21.4c-0.7,0.2-1,0.9-0.8,1.6c2,6.6,6.8,19.9,9.9,27.4     c0.2,0.6,0.9,0.9,1.5,0.7c16.3-4.7,32.7-9.7,48.4-15.3V67.7z"/>
			<g>
				<path class="st50" d="M582.8,85.3c-17.5,7-36.9,13.9-54.9,19.8c1.7,4.7,3.5,9.5,5,12.9c0.2,0.6,0.9,0.9,1.5,0.7      c16.3-4.7,32.7-9.7,48.4-15.3V85.3z"/>
			</g>
			<g>
				<ellipse class="st51" cx="536.5" cy="114.6" rx="1.3" ry="1.3"/>
				<ellipse class="st52" cx="536.1" cy="114.3" rx="1.2" ry="1.2"/>
			</g>
			<g>
				<ellipse class="st51" cx="540.4" cy="113.3" rx="1.3" ry="1.3"/>
				<ellipse class="st52" cx="540" cy="113.1" rx="1.2" ry="1.2"/>
			</g>
			<g>
				<ellipse class="st51" cx="544.4" cy="112.1" rx="1.3" ry="1.3"/>
				<ellipse class="st52" cx="544" cy="111.8" rx="1.2" ry="1.2"/>
			</g>
		</g>
		<g>
			<path class="st0" d="M462.7,109c1-2.4,2-4.9,2.7-7.4c0.7-2.3,1.2-4.7,1.8-7c0.4-2,0.8-3.9,1.3-5.9c0.4-0.9,0.9-1.7,1.4-2.6     l11.9,4.4c0.5,0.2,0.8,0.8,0.6,1.3l-9.2,24.6c-0.2,0.5-0.8,0.8-1.3,0.6l-10.9-4C461.6,111.7,462.1,110.3,462.7,109z"/>
			<path class="st47" d="M458.8,107.6c1-2.4,2-4.9,2.7-7.4c0.7-2.3,1.2-4.7,1.8-7c0.4-2,0.8-3.9,1.3-5.9c0.4-0.9,0.9-1.7,1.4-2.6     l11.9,4.4c0.5,0.2,0.8,0.8,0.6,1.3l-9.2,24.6c-0.2,0.5-0.8,0.8-1.3,0.6l-10.9-4C457.7,110.2,458.3,108.9,458.8,107.6z"/>
			<path class="st48" d="M475.2,86.4c-19.6-6.3-40.8-14-59.4-21.5v35.8c15.8,5.7,32.4,10.8,48.8,15.5c0.6,0.2,1.3-0.1,1.5-0.7     c3.1-7.5,7.9-20.8,9.9-27.4C476.3,87.4,475.9,86.7,475.2,86.4z"/>
			<path class="st49" d="M475.2,86.4c-19.6-6.3-40.8-14-59.4-21.5v35.8c15.8,5.7,32.4,10.8,48.8,15.5c0.6,0.2,1.3-0.1,1.5-0.7     c3.1-7.5,7.9-20.8,9.9-27.4C476.3,87.4,475.9,86.7,475.2,86.4z"/>
			<g>
				<path class="st50" d="M415.8,82.5v18.1c15.8,5.7,32.4,10.8,48.8,15.5c0.6,0.2,1.3-0.1,1.5-0.7c1.5-3.5,3.3-8.2,5-12.9      C453,96.6,433.4,89.5,415.8,82.5z"/>
			</g>
			<g>
				<ellipse class="st51" cx="462.5" cy="111.9" rx="1.3" ry="1.3"/>
				<ellipse class="st52" cx="462.9" cy="111.7" rx="1.2" ry="1.2"/>
			</g>
			<g>
				<ellipse class="st51" cx="458.6" cy="110.7" rx="1.3" ry="1.3"/>
				<ellipse class="st52" cx="459" cy="110.4" rx="1.2" ry="1.2"/>
			</g>
			<g>
				<ellipse class="st51" cx="454.5" cy="109.4" rx="1.3" ry="1.3"/>
				<ellipse class="st52" cx="455" cy="109.2" rx="1.2" ry="1.2"/>
			</g>
		</g>
	</g>
</g></g>
</g>
<g id="build">
<g id="build-badge">
<circle xmlns="http://www.w3.org/2000/svg" class="st5" cx="339.6" cy="326.7" r="56.6"/>
  
  
<g id="build-title">
	<g>
		<path class="st0" d="M308.4,290h3.5c2.3,0,2.7,1.5,2.7,2.5c0,1-0.4,2.5-2.7,2.5h-2.1v3.1h-1.4V290z M309.8,293.8h2    c0.6,0,1.4-0.3,1.4-1.3c0-1.1-0.6-1.3-1.4-1.3h-2.1V293.8z"/>
		<path class="st0" d="M315.7,292.2h1.2v1.1h0c0.1-0.6,0.9-1.3,1.7-1.3c0.3,0,0.4,0,0.5,0v1.2c-0.2,0-0.4-0.1-0.5-0.1    c-0.9,0-1.6,0.7-1.6,2v2.8h-1.3V292.2z"/>
		<path class="st0" d="M319.2,295.1c0-1.8,1.1-3,2.9-3c1.9,0,2.9,1.3,2.9,3c0,1.8-1.1,3.1-2.9,3.1    C320.2,298.1,319.2,296.9,319.2,295.1z M323.7,295.1c0-1-0.5-2-1.6-2s-1.6,1-1.6,2c0,1,0.5,2,1.6,2S323.7,296.1,323.7,295.1z"/>
		<path class="st0" d="M325.5,292.2h1v-0.5c0-1.5,0.8-1.7,1.6-1.7c0.4,0,0.7,0,0.9,0.1v1c-0.2,0-0.3-0.1-0.6-0.1    c-0.3,0-0.6,0.1-0.6,0.6v0.6h1.1v1h-1.1v4.8h-1.3v-4.8h-1V292.2z"/>
		<path class="st0" d="M330.6,295.4c0,0.9,0.5,1.7,1.6,1.7c0.7,0,1.2-0.3,1.4-1h1.2c-0.3,1.3-1.4,2-2.6,2c-1.8,0-2.8-1.3-2.8-3    c0-1.6,1.1-3.1,2.8-3.1c1.8,0,2.9,1.6,2.7,3.4H330.6z M333.6,294.6c0-0.8-0.6-1.5-1.5-1.5c-0.9,0-1.5,0.7-1.5,1.5H333.6z"/>
		<path class="st0" d="M336.8,296.1c0.1,0.7,0.6,1,1.3,1c0.5,0,1.3-0.1,1.3-0.8c0-0.7-1-0.8-1.9-1c-0.9-0.2-1.9-0.5-1.9-1.7    c0-1.3,1.4-1.7,2.4-1.7c1.2,0,2.3,0.5,2.4,1.8h-1.3c-0.1-0.6-0.6-0.8-1.2-0.8c-0.4,0-1.1,0.1-1.1,0.6c0,0.6,0.9,0.7,1.9,0.9    c0.9,0.2,1.9,0.5,1.9,1.7c0,1.4-1.4,1.9-2.6,1.9c-1.5,0-2.5-0.6-2.6-2H336.8z"/>
		<path class="st0" d="M342.6,296.1c0.1,0.7,0.6,1,1.3,1c0.5,0,1.3-0.1,1.3-0.8c0-0.7-1-0.8-1.9-1c-0.9-0.2-1.9-0.5-1.9-1.7    c0-1.3,1.4-1.7,2.4-1.7c1.2,0,2.3,0.5,2.4,1.8H345c-0.1-0.6-0.6-0.8-1.2-0.8c-0.4,0-1.1,0.1-1.1,0.6c0,0.6,0.9,0.7,1.9,0.9    c0.9,0.2,1.9,0.5,1.9,1.7c0,1.4-1.4,1.9-2.6,1.9c-1.5,0-2.5-0.6-2.6-2H342.6z"/>
		<path class="st0" d="M347.5,290h1.3v1.2h-1.3V290z M347.5,292.2h1.3v5.8h-1.3V292.2z"/>
		<path class="st0" d="M349.9,295.1c0-1.8,1.1-3,2.9-3c1.9,0,2.9,1.3,2.9,3c0,1.8-1.1,3.1-2.9,3.1    C351,298.1,349.9,296.9,349.9,295.1z M354.5,295.1c0-1-0.5-2-1.6-2s-1.6,1-1.6,2c0,1,0.5,2,1.6,2S354.5,296.1,354.5,295.1z"/>
		<path class="st0" d="M356.8,292.2h1.2v0.9l0,0c0.4-0.6,1-1,1.8-1c1.3,0,2,0.7,2,2v4h-1.3v-3.6c0-0.9-0.4-1.3-1.1-1.3    c-0.9,0-1.4,0.7-1.4,1.5v3.4h-1.3V292.2z"/>
		<path class="st0" d="M368.1,296.7c0,0.3,0.1,0.4,0.3,0.4c0.1,0,0.2,0,0.3,0v0.9c-0.2,0.1-0.6,0.1-0.8,0.1c-0.5,0-0.9-0.2-1-0.7    c-0.5,0.5-1.3,0.7-2,0.7c-1,0-2-0.6-2-1.7c0-1.4,1.2-1.7,2.2-1.8c0.9-0.2,1.7-0.1,1.7-0.8c0-0.7-0.7-0.8-1.2-0.8    c-0.7,0-1.2,0.3-1.3,0.9h-1.3c0.1-1.5,1.4-1.9,2.6-1.9c1.1,0,2.3,0.5,2.3,1.7V296.7z M366.8,295.1c-0.4,0.3-1,0.2-1.6,0.3    c-0.5,0.1-1,0.3-1,1c0,0.6,0.7,0.7,1.2,0.7c0.6,0,1.4-0.3,1.4-1.1V295.1z"/>
		<path class="st0" d="M369.5,290h1.3v8h-1.3V290z"/>
	</g>
	<g>
		<path class="st0" d="M329,309.1c0,1.2,0.9,1.7,2,1.7c1.2,0,1.7-0.6,1.7-1.2c0-0.6-0.3-0.9-0.7-1c-0.6-0.2-1.3-0.4-2.4-0.7    c-1.4-0.4-1.8-1.2-1.8-2c0-1.6,1.5-2.4,2.9-2.4c1.7,0,3.1,0.9,3.1,2.6h-1.4c-0.1-1-0.8-1.4-1.7-1.4c-0.6,0-1.5,0.2-1.5,1    c0,0.6,0.4,0.9,1,1c0.1,0,1.9,0.5,2.3,0.6c1.1,0.3,1.6,1.2,1.6,2c0,1.8-1.6,2.5-3.2,2.5c-1.8,0-3.3-0.9-3.3-2.9H329z"/>
		<path class="st0" d="M334.6,306h1v-1.7h1.3v1.7h1.2v1h-1.2v3.1c0,0.5,0,0.8,0.6,0.8c0.2,0,0.4,0,0.5,0v1c-0.3,0-0.5,0.1-0.8,0.1    c-1.3,0-1.6-0.5-1.6-1.5V307h-1V306z"/>
		<path class="st0" d="M344,311.8h-1.3V311h0c-0.3,0.6-1,1-1.6,1c-1.5,0-2.2-0.8-2.2-2.3V306h1.3v3.5c0,1,0.4,1.4,1.1,1.4    c1.1,0,1.4-0.7,1.4-1.6V306h1.3V311.8z"/>
		<path class="st0" d="M344.8,306h1v-0.5c0-1.5,0.8-1.7,1.6-1.7c0.4,0,0.7,0,0.9,0.1v1c-0.2,0-0.3-0.1-0.6-0.1    c-0.3,0-0.6,0.1-0.6,0.6v0.6h1.1v1H347v4.8h-1.3V307h-1V306z"/>
		<path class="st0" d="M348.1,306h1v-0.5c0-1.5,0.8-1.7,1.6-1.7c0.4,0,0.7,0,0.9,0.1v1c-0.2,0-0.3-0.1-0.6-0.1    c-0.3,0-0.6,0.1-0.6,0.6v0.6h1.1v1h-1.1v4.8h-1.3V307h-1V306z"/>
	</g>
</g>
<g id="build-details">
		<path class="st27" d="M339.6,339.9c9.8,0,17.7,8.5,18.2,19.2c-5.5,2.6-11.7,4-18.2,4s-12.6-1.4-18.2-4    C321.9,348.5,329.9,339.9,339.6,339.9z"/>
		<path class="st28" d="M352.6,361.2c-4.1,1.3-8.4,2-12.9,2c-6.5,0-12.6-1.4-18.2-4c0.4-10.3,7.8-18.6,17.1-19.2    c8.2,2.8,14.2,11.1,14.6,20.9C352.9,361,352.7,361.1,352.6,361.2z"/>
		<path class="st29" d="M339.6,339.9c3,0,5.7,0.8,8.2,2.2c-2,2.5-4.9,4.1-8.2,4.1c-3.3,0-6.2-1.6-8.2-4.1    C333.9,340.7,336.7,339.9,339.6,339.9z"/>
		<path class="st30" d="M345.6,344.2c-1.7,1.3-3.8,2-6,2c-3.3,0-6.2-1.6-8.2-4.1c2.2-1.2,4.6-2,7.2-2.1    C341.2,340.9,343.6,342.3,345.6,344.2z"/>
		<path class="st31" d="M339.6,343.1c6,0,10.9-5.4,10.9-12s-4.9-12-10.9-12s-10.9,5.4-10.9,12C328.7,337.8,333.6,343.1,339.6,343.1z    "/>
		<path class="st29" d="M339.6,319.2c5.3,0,9.8,4.2,10.7,9.8c-0.8,0.1-1.6,0.2-2.4,0.2c-6,0-11.4-2.8-15.1-7.4    C334.7,320.2,337.1,319.2,339.6,319.2z"/>
		<path class="st32" d="M337.5,342.9c-5-1.1-8.8-5.9-8.8-11.7c0-5.8,3.8-10.7,8.8-11.7c5,1.1,8.8,5.9,8.8,11.7    C346.4,337,342.6,341.9,337.5,342.9z"/>
		<path class="st30" d="M329.4,327.2c1.3-3.9,4.4-6.9,8.2-7.7c0.7,0.2,1.4,0.4,2.1,0.7C337,323.5,333.4,326,329.4,327.2z"/>
		<path class="st30" d="M332.9,321.8c1.3-1.2,2.9-2,4.7-2.4c4.4,0.9,7.9,4.8,8.6,9.6C340.9,328.6,336.2,325.9,332.9,321.8z"/>
	</g></g>
</g>


<g id="beer">

<g id="beer-badge" xmlns="http://www.w3.org/2000/svg" >
<circle xmlns="http://www.w3.org/2000/svg" class="st5" cx="328.4" cy="176" r="56.6"/>
<g id="beer-title">
	<g>
		<path class="st0" d="M307.7,140.6c-0.3-1-0.9-1.7-2.1-1.7c-1.8,0-2.6,1.6-2.6,3.3c0,1.6,0.8,3.3,2.6,3.3c1.3,0,2.1-1,2.2-2.2h1.5    c-0.1,2.1-1.6,3.5-3.6,3.5c-2.6,0-4.1-2-4.1-4.5c0-2.4,1.5-4.5,4.1-4.5c1.9,0,3.5,1.1,3.6,2.9H307.7z"/>
		<path class="st0" d="M315.8,146.4h-1.3v-0.9h0c-0.3,0.6-1.1,1-1.8,1c-1.6,0-2.3-0.8-2.3-2.4v-3.9h1.4v3.8c0,1.1,0.4,1.5,1.2,1.5    c1.1,0,1.5-0.7,1.5-1.7v-3.6h1.4V146.4z"/>
		<path class="st0" d="M318.3,144.4c0.1,0.8,0.7,1.1,1.4,1.1c0.5,0,1.4-0.1,1.4-0.8c0-0.7-1-0.8-2-1c-1-0.2-2-0.6-2-1.8    c0-1.4,1.5-1.8,2.6-1.8c1.3,0,2.4,0.5,2.6,1.9h-1.4c-0.1-0.6-0.7-0.8-1.3-0.8c-0.4,0-1.1,0.1-1.1,0.6c0,0.7,1,0.8,2,1    c1,0.2,2,0.6,2,1.8c0,1.5-1.5,2-2.8,2c-1.6,0-2.7-0.7-2.7-2.2H318.3z"/>
		<path class="st0" d="M322.9,140.2h1v-1.9h1.4v1.9h1.2v1h-1.2v3.3c0,0.6,0,0.9,0.7,0.9c0.2,0,0.4,0,0.6,0v1.1    c-0.3,0-0.6,0.1-0.9,0.1c-1.4,0-1.7-0.6-1.7-1.6v-3.7h-1V140.2z"/>
		<path class="st0" d="M327.2,143.3c0-1.9,1.1-3.3,3.1-3.3s3.1,1.4,3.1,3.3c0,1.9-1.1,3.3-3.1,3.3S327.2,145.2,327.2,143.3z     M332.1,143.3c0-1.1-0.5-2.2-1.8-2.2s-1.8,1.1-1.8,2.2c0,1.1,0.5,2.2,1.8,2.2S332.1,144.4,332.1,143.3z"/>
		<path class="st0" d="M334.6,140.2h1.3v0.9h0c0.4-0.6,0.9-1,1.9-1c0.8,0,1.5,0.3,1.7,1c0.5-0.6,1-1,1.9-1c1.3,0,2.1,0.6,2.1,2.1    v4.3h-1.4v-3.6c0-1-0.1-1.7-1.1-1.7c-0.9,0-1.3,0.6-1.3,1.7v3.6h-1.4v-4c0-0.9-0.3-1.3-1.1-1.3c-0.7,0-1.4,0.6-1.4,1.6v3.7h-1.4    V140.2z"/>
		<path class="st0" d="M346.1,143.7c0,1,0.5,1.8,1.7,1.8c0.8,0,1.3-0.3,1.5-1h1.3c-0.3,1.4-1.5,2.1-2.8,2.1c-1.9,0-3-1.4-3-3.3    c0-1.8,1.2-3.3,3-3.3c2,0,3.2,1.8,2.9,3.6H346.1z M349.3,142.8c0-0.9-0.6-1.6-1.6-1.6c-0.9,0-1.6,0.7-1.6,1.6H349.3z"/>
		<path class="st0" d="M351.7,140.2h1.3v1.2h0c0.2-0.7,1-1.4,1.8-1.4c0.3,0,0.4,0,0.5,0v1.3c-0.2,0-0.4-0.1-0.6-0.1    c-0.9,0-1.7,0.8-1.7,2.1v3h-1.4V140.2z"/>
	</g>
	<g>
		<path class="st0" d="M316.8,152.6h5.9v1.3h-4.4v2.2h3.9v1.2h-3.9v3.8h-1.5V152.6z"/>
		<path class="st0" d="M323.7,152.6h1.4v1.3h-1.4V152.6z M323.7,155h1.4v6.2h-1.4V155z"/>
		<path class="st0" d="M326.6,155h1.3v1.2h0c0.2-0.7,1-1.4,1.8-1.4c0.3,0,0.4,0,0.5,0v1.3c-0.2,0-0.4-0.1-0.6-0.1    c-0.9,0-1.7,0.8-1.7,2.1v3h-1.4V155z"/>
		<path class="st0" d="M331.8,159.2c0.1,0.8,0.7,1.1,1.4,1.1c0.5,0,1.4-0.1,1.4-0.8c0-0.7-1-0.8-2-1c-1-0.2-2-0.6-2-1.8    c0-1.4,1.5-1.8,2.6-1.8c1.3,0,2.4,0.5,2.6,1.9h-1.4c-0.1-0.6-0.7-0.8-1.3-0.8c-0.4,0-1.1,0.1-1.1,0.6c0,0.7,1,0.8,2,1    c1,0.2,2,0.6,2,1.8c0,1.5-1.5,2-2.8,2c-1.6,0-2.7-0.7-2.7-2.2H331.8z"/>
		<path class="st0" d="M336.4,155h1v-1.9h1.4v1.9h1.2v1h-1.2v3.3c0,0.6,0,0.9,0.7,0.9c0.2,0,0.4,0,0.6,0v1.1c-0.3,0-0.6,0.1-0.9,0.1    c-1.4,0-1.7-0.6-1.7-1.6V156h-1V155z"/>
	</g>
</g><g id="beer-details">  
<g>
		<path class="st27" d="M328.4,189.7c9.8,0,17.7,8.5,18.2,19.2c-5.5,2.6-11.7,4-18.2,4s-12.6-1.4-18.2-4    C310.6,198.3,318.6,189.7,328.4,189.7z"/>
		<path class="st28" d="M341.3,211c-4.1,1.3-8.4,2-12.9,2c-6.5,0-12.6-1.4-18.2-4c0.4-10.3,7.8-18.6,17.1-19.2    c8.2,2.8,14.2,11.1,14.6,20.9C341.7,210.8,341.5,210.9,341.3,211z"/>
		<path d="M328.4,189.7c3,0,5.7,0.8,8.2,2.2c-2,2.5-4.9,4.1-8.2,4.1c-3.3,0-6.2-1.6-8.2-4.1    C322.6,190.5,325.4,189.7,328.4,189.7z" class="st29"/>
		
		<path class="st31" d="M328.4,193c6,0,10.9-5.4,10.9-12s-4.9-12-10.9-12s-10.9,5.4-10.9,12C317.5,187.6,322.4,193,328.4,193z"/>
		<path class="st29" d="M328.4,169c5.3,0,9.8,4.2,10.7,9.8c-0.8,0.1-1.6,0.2-2.4,0.2c-6,0-11.4-2.8-15.1-7.4    C323.5,170,325.8,169,328.4,169z"/>
		<path class="st32" d="M326.3,192.7c-5-1.1-8.8-5.9-8.8-11.7s3.8-10.7,8.8-11.7c5,1.1,8.8,5.9,8.8,11.7S331.3,191.7,326.3,192.7z"/>
		<path class="st30" d="M318.1,177c1.3-3.9,4.4-6.9,8.2-7.7c0.7,0.2,1.4,0.4,2.1,0.7C325.7,173.3,322.2,175.8,318.1,177z"/>
		<path class="st30" d="M321.6,171.6c1.3-1.2,2.9-2,4.7-2.4c4.4,0.9,7.9,4.8,8.6,9.6C329.7,178.4,325,175.7,321.6,171.6z"/>
	</g><g>
	
	<g>
		<path class="st15" d="M347.7,184.7c5.4,0,9.8,4.7,10.1,10.7c-3.1,1.4-6.5,2.2-10.1,2.2c-3.6,0-7-0.8-10.1-2.2    C337.9,189.4,342.3,184.7,347.7,184.7z"/>
		<path class="st16" d="M354.9,196.5c-2.3,0.7-4.7,1.1-7.2,1.1c-3.6,0-7-0.8-10.1-2.2c0.2-5.7,4.3-10.3,9.5-10.7    c4.5,1.6,7.9,6.2,8.1,11.6C355.1,196.4,355,196.4,354.9,196.5z"/>
		<path class="st17" d="M347.7,184.7c1.6,0,3.2,0.4,4.6,1.2c-1.1,1.4-2.7,2.3-4.6,2.3c-1.8,0-3.5-0.9-4.6-2.3    C344.5,185.1,346.1,184.7,347.7,184.7z"/>
		<path class="st18" d="M351.1,187c-1,0.7-2.1,1.1-3.3,1.1c-1.8,0-3.5-0.9-4.6-2.3c1.2-0.7,2.6-1.1,4-1.2    C348.6,185.2,349.9,186,351.1,187z"/>
		<path class="st19" d="M347.7,186.4c3.3,0,6.1-3,6.1-6.6c0-3.7-2.7-6.6-6.1-6.6c-3.3,0-6.1,3-6.1,6.6    C341.7,183.4,344.4,186.4,347.7,186.4z"/>
		<path class="st17" d="M347.7,173.1c3,0,5.4,2.3,6,5.4c-0.4,0.1-0.9,0.1-1.3,0.1c-3.3,0-6.3-1.6-8.4-4.1    C345,173.7,346.3,173.1,347.7,173.1z"/>
		<path class="st20" d="M346.6,186.3c-2.8-0.6-4.9-3.3-4.9-6.5s2.1-5.9,4.9-6.5c2.8,0.6,4.9,3.3,4.9,6.5S349.4,185.7,346.6,186.3z"/>
		<path class="st18" d="M342,177.6c0.7-2.2,2.4-3.8,4.5-4.3c0.4,0.1,0.8,0.2,1.2,0.4C346.3,175.5,344.3,176.9,342,177.6z"/>
		<path class="st18" d="M344,174.6c0.7-0.6,1.6-1.1,2.6-1.3c2.4,0.5,4.4,2.7,4.8,5.4C348.4,178.4,345.8,176.9,344,174.6z"/>
	</g>
	</g>
	<g>
		<path class="st21" d="M309,184.7c5.4,0,9.8,4.7,10.1,10.7c-3.1,1.4-6.5,2.2-10.1,2.2c-3.6,0-7-0.8-10.1-2.2    C299.2,189.4,303.6,184.7,309,184.7z"/>
		<path class="st22" d="M316.2,196.5c-2.3,0.7-4.7,1.1-7.2,1.1c-3.6,0-7-0.8-10.1-2.2c0.2-5.7,4.3-10.3,9.5-10.7    c4.5,1.6,7.9,6.2,8.1,11.6C316.4,196.4,316.3,196.4,316.2,196.5z"/>
		<path class="st23" d="M309,184.7c1.6,0,3.2,0.4,4.6,1.2c-1.1,1.4-2.7,2.3-4.6,2.3c-1.8,0-3.5-0.9-4.6-2.3    C305.9,185.1,307.4,184.7,309,184.7z"/>
		<path class="st24" d="M312.4,187c-1,0.7-2.1,1.1-3.3,1.1c-1.8,0-3.5-0.9-4.6-2.3c1.2-0.7,2.6-1.1,4-1.2    C309.9,185.2,311.2,186,312.4,187z"/>
		<path class="st25" d="M309,186.4c3.3,0,6.1-3,6.1-6.6c0-3.7-2.7-6.6-6.1-6.6c-3.3,0-6.1,3-6.1,6.6    C303,183.4,305.7,186.4,309,186.4z"/>
		<path class="st23" d="M309,173.1c3,0,5.4,2.3,6,5.4c-0.4,0.1-0.9,0.1-1.3,0.1c-3.3,0-6.3-1.6-8.4-4.1    C306.3,173.7,307.6,173.1,309,173.1z"/>
		<path class="st26" d="M307.9,186.3c-2.8-0.6-4.9-3.3-4.9-6.5s2.1-5.9,4.9-6.5c2.8,0.6,4.9,3.3,4.9,6.5S310.7,185.7,307.9,186.3z"/>
		<path class="st24" d="M303.3,177.6c0.7-2.2,2.4-3.8,4.5-4.3c0.4,0.1,0.8,0.2,1.2,0.4C307.6,175.5,305.6,176.9,303.3,177.6z"/>
		<path class="st24" d="M305.3,174.6c0.7-0.6,1.6-1.1,2.6-1.3c2.4,0.5,4.4,2.7,4.8,5.4C309.8,178.4,307.1,176.9,305.3,174.6z"/>
	</g>
	
</g></g>
</g>


<g id="coffee">
<g id="coffee-badge"> <circle xmlns="http://www.w3.org/2000/svg" class="st5" cx="660.8" cy="326.7" r="56.6"/>
  
  
<g id="coffee-details">
	<path class="st8" d="M661.8,324.1L661.8,324.1L661.8,324.1C661.8,324.1,661.7,324.1,661.8,324.1L661.8,324.1   c-9.8,0-12.7,8.6-12.7,11.8c0,3.2,1.3,6.3,3,8.2c1.7,1.9,3.6,5,3.6,7.7c0,0.2,0.1,0.5,0.1,0.7h11.8c0.1-0.2,0.1-0.4,0.1-0.7   c0-2.7,1.9-5.8,3.6-7.7c1.7-1.9,3-5,3-8.2C674.4,332.7,671.5,324.1,661.8,324.1z"/>
	<path class="st9" d="M673,335.8c0-2.3-1.9-8.3-8.3-9.3c-0.2,0.2-0.3,0.3-0.4,0.5c6.1,1.4,8,7.4,8,9.7c0,1.9-0.5,3.7-1.3,5.2   C672.1,340.4,673,338.1,673,335.8z"/>
	<path class="st9" d="M662.1,326c-0.1,0.2-0.3,0.4-0.4,0.5c0.6,0.1,1.2,0.2,1.8,0.4l0.5-0.6C663.4,326.1,662.8,326,662.1,326z"/>
	<g>
		<g>
			<g>
				<path class="st10" d="M660.9,352.6L660.9,352.6c-0.1,0-0.2-0.1-0.2-0.2s0.3-9.3-2.7-11.4c-0.1-0.1-0.1-0.2-0.1-0.3      c0.1-0.1,0.2-0.1,0.3-0.1c3.2,2.2,2.9,11.3,2.9,11.7C661.1,352.5,661,352.6,660.9,352.6z"/>
			</g>
			<g>
				<path class="st10" d="M660.9,341.7l-0.7-1.2l-0.8,1l-1.3-0.6c-0.1,0-0.1-0.2-0.1-0.3c0-0.1,0.2-0.1,0.3-0.1l1,0.4l1-1.3l0.6,1.1      l0.8-1.3l0.8,1.1l0.4-1.2l0.6,1.1l0.5-0.9l1.7,0.7c0.1,0,0.1,0.2,0.1,0.3c0,0.1-0.2,0.1-0.3,0.1l-1.4-0.6l-0.7,1.2l-0.5-0.9      l-0.4,1.1l-0.9-1.2L660.9,341.7z"/>
			</g>
			<g>
				<path class="st10" d="M662.6,352.6c-0.1,0-0.2-0.1-0.2-0.2c0-0.4-0.3-10.1,3.2-11.9c0.1,0,0.2,0,0.3,0.1s0,0.2-0.1,0.3      c-3.3,1.7-3,11.4-3,11.5S662.7,352.6,662.6,352.6L662.6,352.6z"/>
			</g>
		</g>
	</g>
	<g>
		<g>
			<g>
				<path class="st8" d="M644.6,334.5c-0.1,0-0.1,0-0.2,0l-5.5-1.8c-0.3-0.1-0.4-0.4-0.3-0.7c0.1-0.3,0.4-0.4,0.7-0.3l5.5,1.8      c0.3,0.1,0.4,0.4,0.3,0.7C645.1,334.3,644.9,334.5,644.6,334.5z"/>
			</g>
			<g>
				<path class="st8" d="M681.8,347c-0.1,0-0.1,0-0.2,0l-5.5-1.8c-0.3-0.1-0.4-0.4-0.3-0.7c0.1-0.3,0.4-0.4,0.7-0.3l5.5,1.8      c0.3,0.1,0.4,0.4,0.3,0.7C682.3,346.9,682.1,347,681.8,347z"/>
			</g>
			<g>
				<path class="st8" d="M677.2,334.7c-0.2,0-0.4-0.1-0.5-0.3c-0.1-0.3,0-0.6,0.3-0.7l5.4-2c0.3-0.1,0.6,0,0.7,0.3      c0.1,0.3,0,0.6-0.3,0.7l-5.4,2C677.3,334.7,677.3,334.7,677.2,334.7z"/>
			</g>
			<g>
				<path class="st8" d="M661.2,320.1c-0.3,0-0.5-0.2-0.5-0.5v-5.8c0-0.3,0.2-0.5,0.5-0.5s0.5,0.2,0.5,0.5v5.8      C661.7,319.9,661.4,320.1,661.2,320.1z"/>
			</g>
			<g>
				<path class="st8" d="M673.6,325.9c-0.1,0-0.3-0.1-0.4-0.2c-0.2-0.2-0.2-0.5,0-0.8l4.1-4.1c0.2-0.2,0.5-0.2,0.8,0      c0.2,0.2,0.2,0.5,0,0.8l-4.1,4.1C673.9,325.8,673.8,325.9,673.6,325.9z"/>
			</g>
			<g>
				<path class="st8" d="M650.5,323.9c-0.1,0-0.3-0.1-0.4-0.2l-3.8-4.3c-0.2-0.2-0.2-0.6,0-0.8c0.2-0.2,0.6-0.2,0.8,0l3.8,4.3      c0.2,0.2,0.2,0.6,0,0.8C650.8,323.9,650.7,323.9,650.5,323.9z"/>
			</g>
			<g>
				<path class="st8" d="M641.4,348.9c-0.2,0-0.4-0.1-0.5-0.3c-0.1-0.3,0-0.6,0.3-0.7l5.4-2c0.3-0.1,0.6,0,0.7,0.3      c0.1,0.3,0,0.6-0.3,0.7l-5.4,2C641.5,348.9,641.5,348.9,641.4,348.9z"/>
			</g>
		</g>
	</g>
	<path class="st11" d="M661.7,361.4L661.7,361.4C661.7,361.4,661.8,361.4,661.7,361.4C661.8,361.4,661.8,361.4,661.7,361.4   L661.7,361.4c1.6-0.1,3.5-1.2,4.7-2h-9.3C658.3,360.1,660.2,361.2,661.7,361.4z"/>
	<path class="st12" d="M655.9,358.6c0,0,0.4,0.3,1.1,0.7h9.6c0.6-0.4,1.1-0.7,1.1-0.7v-6.3H656L655.9,358.6L655.9,358.6z"/>
	<g>
		<path class="st13" d="M668,353.6c0,0.2-0.2,0.3-0.4,0.3h-11.7c-0.2,0-0.4-0.1-0.4-0.3l0,0c0-0.2,0.2-0.3,0.4-0.3h11.7    C667.8,353.3,668,353.5,668,353.6L668,353.6z"/>
		<path class="st13" d="M668,354.9c0,0.2-0.2,0.3-0.4,0.3h-11.7c-0.2,0-0.4-0.1-0.4-0.3l0,0c0-0.2,0.2-0.3,0.4-0.3h11.7    C667.8,354.6,668,354.8,668,354.9L668,354.9z"/>
		<path class="st13" d="M668,356.2c0,0.2-0.2,0.3-0.4,0.3h-11.7c-0.2,0-0.4-0.1-0.4-0.3l0,0c0-0.2,0.2-0.3,0.4-0.3h11.7    C667.8,355.9,668,356.1,668,356.2L668,356.2z"/>
		<path class="st13" d="M668,357.5c0,0.2-0.2,0.3-0.4,0.3h-11.7c-0.2,0-0.4-0.1-0.4-0.3l0,0c0-0.2,0.2-0.3,0.4-0.3h11.7    C667.8,357.2,668,357.4,668,357.5L668,357.5z"/>
	</g>
</g><g id="coffee-title">
	<g>
		<path class="st0" d="M638.7,284.8h1.5v8.6h-1.5V284.8z"/>
		<path class="st0" d="M641.9,287.2h1.3v0.9l0,0c0.4-0.7,1.1-1.1,1.9-1.1c1.3,0,2.2,0.7,2.2,2.1v4.3H646v-3.9c0-1-0.4-1.4-1.2-1.4    c-0.9,0-1.5,0.7-1.5,1.6v3.7h-1.4V287.2z"/>
		<path class="st0" d="M654.6,293.4h-1.3v-0.8h0c-0.4,0.7-1.1,1-1.9,1c-2,0-2.9-1.5-2.9-3.3c0-2.2,1.3-3.2,2.7-3.2    c0.8,0,1.6,0.3,2.1,1h0v-3.2h1.4V293.4z M651.6,292.5c1.2,0,1.7-1.1,1.7-2.2c0-1.4-0.7-2.2-1.7-2.2c-1.3,0-1.7,1.1-1.7,2.3    C649.8,291.4,650.4,292.5,651.6,292.5z"/>
		<path class="st0" d="M661.6,293.4h-1.3v-0.9h0c-0.3,0.6-1.1,1-1.8,1c-1.6,0-2.3-0.8-2.3-2.4v-3.9h1.4v3.8c0,1.1,0.4,1.5,1.2,1.5    c1.1,0,1.5-0.7,1.5-1.7v-3.6h1.4V293.4z"/>
		<path class="st0" d="M664,291.4c0.1,0.8,0.7,1.1,1.4,1.1c0.5,0,1.4-0.1,1.4-0.8c0-0.7-1-0.8-2-1c-1-0.2-2-0.6-2-1.8    c0-1.4,1.5-1.8,2.6-1.8c1.3,0,2.4,0.5,2.6,1.9h-1.4c-0.1-0.6-0.7-0.8-1.3-0.8c-0.4,0-1.1,0.1-1.1,0.6c0,0.7,1,0.8,2,1    c1,0.2,2,0.6,2,1.8c0,1.5-1.5,2-2.8,2c-1.6,0-2.7-0.7-2.7-2.2H664z"/>
		<path class="st0" d="M668.6,287.2h1v-1.9h1.4v1.9h1.2v1H671v3.3c0,0.6,0,0.9,0.7,0.9c0.2,0,0.4,0,0.6,0v1.1    c-0.3,0-0.6,0.1-0.9,0.1c-1.4,0-1.7-0.6-1.7-1.6v-3.7h-1V287.2z"/>
		<path class="st0" d="M673.2,287.2h1.3v1.2h0c0.2-0.7,1-1.4,1.8-1.4c0.3,0,0.4,0,0.5,0v1.3c-0.2,0-0.4-0.1-0.6-0.1    c-0.9,0-1.7,0.8-1.7,2.1v3h-1.4V287.2z"/>
		<path class="st0" d="M676.8,287.2h1.5l1.6,4.6h0l1.6-4.6h1.4l-2.4,6.5c-0.4,1.1-0.8,2.1-2.2,2.1c-0.3,0-0.6,0-0.9-0.1v-1.2    c0.2,0,0.4,0.1,0.6,0.1c0.6,0,0.8-0.3,1-0.9l0.2-0.5L676.8,287.2z"/>
	</g>
	<g>
		<path class="st0" d="M640.2,299.6h6.2v1.3h-4.7v2.2h4.3v1.2h-4.3v2.5h4.7v1.3h-6.2V299.6z"/>
		<path class="st0" d="M649.2,304.9l-2.1-2.9h1.7l1.3,1.9l1.4-1.9h1.6l-2.1,2.9l2.4,3.3h-1.6l-1.6-2.3l-1.5,2.3h-1.6L649.2,304.9z"/>
		<path class="st0" d="M654.1,302h1.3v0.8h0c0.4-0.7,1.1-1,1.9-1c2,0,2.9,1.5,2.9,3.3c0,1.7-0.8,3.2-2.7,3.2c-0.8,0-1.6-0.3-2.1-1h0    v3.1h-1.4V302z M657.1,302.9c-1.2,0-1.7,0.9-1.7,2.2c0,1.2,0.6,2.2,1.7,2.2c1.2,0,1.7-1.1,1.7-2.2    C658.8,304,658.2,302.9,657.1,302.9z"/>
		<path class="st0" d="M662.4,305.5c0,1,0.5,1.8,1.7,1.8c0.8,0,1.3-0.3,1.5-1h1.3c-0.3,1.4-1.5,2.1-2.8,2.1c-1.9,0-3-1.4-3-3.3    c0-1.8,1.2-3.3,3-3.3c2,0,3.2,1.8,2.9,3.6H662.4z M665.6,304.6c0-0.9-0.6-1.6-1.6-1.6c-0.9,0-1.6,0.7-1.6,1.6H665.6z"/>
		<path class="st0" d="M668,302h1.3v1.2h0c0.2-0.7,1-1.4,1.8-1.4c0.3,0,0.4,0,0.5,0v1.3c-0.2,0-0.4-0.1-0.6-0.1    c-0.9,0-1.7,0.8-1.7,2.1v3H668V302z"/>
		<path class="st0" d="M671.6,302h1v-1.9h1.4v1.9h1.2v1H674v3.3c0,0.6,0,0.9,0.7,0.9c0.2,0,0.4,0,0.6,0v1.1c-0.3,0-0.6,0.1-0.9,0.1    c-1.4,0-1.7-0.6-1.7-1.6V303h-1V302z"/>
		<path class="st0" d="M677.3,306.2c0.1,0.8,0.7,1.1,1.4,1.1c0.5,0,1.4-0.1,1.4-0.8c0-0.7-1-0.8-2-1c-1-0.2-2-0.6-2-1.8    c0-1.4,1.5-1.8,2.6-1.8c1.3,0,2.4,0.5,2.6,1.9h-1.4c-0.1-0.6-0.7-0.8-1.3-0.8c-0.4,0-1.1,0.1-1.1,0.6c0,0.7,1,0.8,2,1    c1,0.2,2,0.6,2,1.8c0,1.5-1.5,2-2.8,2c-1.6,0-2.7-0.7-2.7-2.2H677.3z"/>
	</g>
</g></g>
</g>



</g></svg>